<svg width="13" height="17" viewBox="0 0 13 17" fill="none" xmlns="http://www.w3.org/2000/svg">
<path d="M6.47888 0.0501709C8.22143 0.05021 9.63904 1.46777 9.63904 3.21033V3.224H11.0082C11.6192 3.224 12.134 3.70079 12.181 4.30994L12.8998 13.3646L12.9066 13.642C12.8886 14.286 12.6372 14.9084 12.1967 15.3842C11.693 15.9279 10.9789 16.2396 10.2377 16.2396H2.72009C1.97888 16.2396 1.26477 15.9279 0.761108 15.3842C0.257486 14.8404 0.00129713 14.1046 0.0579834 13.3656L0.776733 4.30896C0.823478 3.70085 1.33852 3.224 1.94958 3.224H3.31873V3.21033C3.31873 1.46775 4.7363 0.0501709 6.47888 0.0501709ZM1.94958 4.26599C1.89767 4.26599 1.85159 4.29691 1.82947 4.34119L1.8158 4.39001L1.09705 13.4467C1.06204 13.9026 1.21413 14.3397 1.52576 14.6761C1.8374 15.0125 2.26151 15.1976 2.72009 15.1976H10.2377C10.6963 15.1976 11.1204 15.0126 11.432 14.6761C11.7047 14.3817 11.8548 14.0102 11.8646 13.6156L11.8607 13.4457L11.142 4.39197V4.39099C11.1364 4.3205 11.0772 4.26599 11.0082 4.26599H9.63904V5.37732C9.63893 5.66508 9.40534 5.8988 9.11755 5.8988C8.82986 5.89869 8.59618 5.66501 8.59607 5.37732V4.26599H4.36072V5.37732C4.36061 5.66496 4.12783 5.89862 3.84021 5.8988C3.55243 5.8988 3.31883 5.66508 3.31873 5.37732V4.26599H1.94958ZM6.47888 1.09216C5.31125 1.09216 4.36072 2.04266 4.36072 3.21033V3.224H8.59607V3.21033C8.59607 2.04272 7.64648 1.0922 6.47888 1.09216Z" fill="white" stroke="white" stroke-width="0.1"/>
</svg>
