<svg width="21" height="22" viewBox="0 0 21 22" fill="none" xmlns="http://www.w3.org/2000/svg">
<path fill-rule="evenodd" clip-rule="evenodd" d="M5.34005 5.0896C8.28617 5.0896 10.6801 8.26984 10.6801 12.1196C10.6801 15.9694 8.28638 19.1496 5.34005 19.1496C2.39372 19.1496 0 15.9694 0 12.1196C0 8.26984 2.39372 5.0896 5.34005 5.0896ZM5.52418 18.4801C3.31459 14.6305 8.28617 11.1153 5.52418 5.75912C6.62898 13.4587 2.2098 14.2954 5.52418 18.4801Z" fill="#B87651"/>
<path fill-rule="evenodd" clip-rule="evenodd" d="M11.048 9.44193C16.7559 8.60502 23.7534 16.1372 19.8864 19.9867C16.9403 22.8322 11.6002 20.3215 9.39062 17.8108C10.6796 16.3044 11.4161 14.2958 11.4161 12.6222C15.467 16.1372 14.5463 18.9826 19.5179 19.485C15.6511 18.6481 15.467 14.2964 11.4161 11.7855C11.4161 10.9485 11.2319 10.1116 11.0478 9.44212L11.048 9.44193Z" fill="#B87651"/>
<path fill-rule="evenodd" clip-rule="evenodd" d="M17.6766 0.570485C19.3338 1.74215 19.1497 4.58763 17.1242 6.5962C15.2829 8.77216 12.3368 9.44168 10.6798 8.27002C9.02282 7.09835 9.20674 4.25287 11.2322 2.2443C13.0735 0.0683423 16.0196 -0.601182 17.6766 0.570485ZM11.0479 8.10283C11.7844 5.08997 16.2036 5.25735 17.4923 0.90563C14.362 5.5923 11.4157 4.25325 11.0479 8.10283Z" fill="#B87651"/>
</svg>
