<svg width="40" height="24" viewBox="0 0 40 24" fill="none" xmlns="http://www.w3.org/2000/svg">
<path d="M9.72 17.22C9.94 17.44 10.05 17.73 10.05 18.09C10.05 18.45 9.98 18.81 9.84 19.17C9.7 19.51 9.47 19.85 9.15 20.19C8.85 20.53 8.4 20.82 7.8 21.06C7.22 21.28 6.55 21.39 5.79 21.39C5.05 21.39 4.36 21.28 3.72 21.06C3.08 20.82 2.47 20.45 1.89 19.95C0.63 18.83 0 17 0 14.46C0 11.9 0.43 10.01 1.29 8.79C2.17 7.55 3.16 6.88 4.26 6.78C5.16 5.92 6.11 5.49 7.11 5.49C7.79 5.49 8.46 5.76 9.12 6.3C9.78 6.84 10.11 7.46 10.11 8.16C10.11 8.86 9.86 9.53 9.36 10.17C8.88 10.81 8.25 11.26 7.47 11.52C6.59 10.58 5.61 9.88 4.53 9.42V12.24C4.53 14.14 4.98 15.51 5.88 16.35C6.56 16.99 7.48 17.31 8.64 17.31C8.98 17.31 9.34 17.28 9.72 17.22Z" fill="white"/>
<path d="M22.9228 12.69C22.9228 15.51 22.3028 17.67 21.0628 19.17C19.8228 20.65 18.2728 21.39 16.4128 21.39C15.1128 21.39 13.9428 20.93 12.9028 20.01C12.3428 19.53 11.8928 18.81 11.5528 17.85C11.2128 16.87 11.0428 15.71 11.0428 14.37C11.0428 12.35 11.4228 10.81 12.1828 9.75C12.9428 8.67 13.7628 8.02 14.6428 7.8C14.9628 6.82 15.6328 6.13 16.6528 5.73C17.1128 5.57 17.6228 5.49 18.1828 5.49C21.3428 5.49 22.9228 7.89 22.9228 12.69ZM15.3328 13.23C15.3328 16.27 15.8728 17.79 16.9528 17.79C17.9128 17.79 18.3928 16.36 18.3928 13.5C18.3928 12.1 18.1628 11.12 17.7028 10.56C17.2628 9.98 16.6428 9.69 15.8428 9.69C15.5028 10.33 15.3328 11.51 15.3328 13.23Z" fill="white"/>
<path d="M33.4071 9.15C33.5271 9.75 33.5871 10.25 33.5871 10.65C33.5871 11.05 33.5571 11.39 33.4971 11.67C33.4371 11.95 33.2871 12.23 33.0471 12.51C32.8071 12.77 32.4471 12.9 31.9671 12.9C31.4871 12.9 30.8771 12.87 30.1371 12.81C30.1571 13.85 30.1671 15.45 30.1671 17.61C30.1671 19.77 29.8871 21.26 29.3271 22.08C28.7871 22.92 27.9571 23.34 26.8371 23.34C26.1771 23.34 25.6371 23.21 25.2171 22.95C24.8171 22.71 24.5671 22.47 24.4671 22.23L24.3471 21.84C24.6671 21.52 24.9571 21.05 25.2171 20.43C25.4971 19.81 25.6371 19.23 25.6371 18.69C25.6371 16.51 25.5871 14.35 25.4871 12.21C25.3071 12.19 25.0971 12.17 24.8571 12.15C24.6371 12.13 24.4471 12.11 24.2871 12.09C24.1471 12.07 24.0271 12.06 23.9271 12.06C23.8871 11.96 23.8671 11.84 23.8671 11.7C23.8671 10.38 24.3371 9.5 25.2771 9.06C25.1571 6.74 25.0971 5.55 25.0971 5.49C25.0971 4.15 25.5971 2.9 26.5971 1.74C27.6171 0.580001 28.8971 0 30.4371 0C32.8371 0 34.0371 0.910001 34.0371 2.73C34.0371 3.33 33.9071 4.03 33.6471 4.83C31.2671 3.97 30.0771 3.96 30.0771 4.8L30.1071 8.88C31.7671 9.06 32.8671 9.15 33.4071 9.15Z" fill="white"/>
<path d="M39.5972 19.08C39.5972 20.62 38.6372 21.39 36.7172 21.39C34.7972 21.39 33.8372 20.62 33.8372 19.08C33.8372 17.5 34.7972 16.71 36.7172 16.71C38.6372 16.71 39.5972 17.5 39.5972 19.08Z" fill="white"/>
</svg>
