<svg width="13" height="12" viewBox="0 0 13 12" fill="none" xmlns="http://www.w3.org/2000/svg">
<path d="M9.62402 0.5C10.6119 0.5 11.5556 1.19336 11.9756 2.3418L12.0518 2.57812C12.6846 4.77773 11.3433 7.64741 8.07422 10.2832L7.75195 10.5371C7.29333 10.8914 6.48673 11.4408 6.42285 11.4844C6.41641 11.4886 6.39158 11.5 6.35254 11.5C6.31293 11.5 6.28891 11.4876 6.28418 11.4844C6.23141 11.4484 5.41491 10.8938 4.95312 10.5371C1.45056 7.83258 0.000525632 4.84758 0.654297 2.57715C1.02544 1.28898 2.0273 0.500172 3.08105 0.5C3.78201 0.5 4.50685 0.799732 5.05762 1.33691C5.28273 1.55656 5.48202 1.87012 5.63184 2.1543C5.70509 2.29327 5.76229 2.41745 5.80176 2.50781L5.86426 2.65918C5.87227 2.68259 5.87999 2.70413 5.8877 2.72363L6.36035 3.91895L6.82031 2.71875C6.82637 2.70294 6.83199 2.68619 6.83789 2.66895C6.84254 2.6565 6.92616 2.43476 7.07324 2.15527C7.22343 1.86993 7.42253 1.55748 7.64746 1.33789C8.19816 0.800477 8.92276 0.500098 9.62402 0.5Z" stroke="white"/>
</svg>
